<?xml version="1.0" encoding="UTF-8" standalone="no"?>
<!-- Created with Inkscape (http://www.inkscape.org/) -->

<svg
   id="svg7384"
   height="22"
   width="22"
   version="1.1"
   xml:space="preserve"
   xmlns="http://www.w3.org/2000/svg"
   xmlns:svg="http://www.w3.org/2000/svg"
   xmlns:rdf="http://www.w3.org/1999/02/22-rdf-syntax-ns#"
   xmlns:cc="http://creativecommons.org/ns#"
   xmlns:dc="http://purl.org/dc/elements/1.1/"><defs
     id="defs9" /><metadata
     id="metadata90"><rdf:RDF><cc:Work
         rdf:about=""><dc:format>image/svg+xml</dc:format><dc:type
           rdf:resource="http://purl.org/dc/dcmitype/StillImage" /><dc:title>Gnome Symbolic Icon Theme</dc:title></cc:Work></rdf:RDF></metadata><title
     id="title9167">Gnome Symbolic Icon Theme</title><g
     id="g82"
     style="display:none"><path
       style="display:inline;fill:#373737;fill-opacity:1;stroke:none"
       d="M 5.3998775,3 V 19 H 21.399878 V 3 Z m 1,1 H 20.399878 V 18 H 6.3998775 Z m 3.5,1 c -1.385,0 -2.5,1.115 -2.5,2.5 0,1.385 1.115,2.5 2.5,2.5 1.3850005,0 2.5000005,-1.115 2.5000005,-2.5 0,-1.385 -1.115,-2.5 -2.5000005,-2.5 z m 0,1 c 0.8310005,0 1.5000005,0.669 1.5000005,1.5 0,0.831 -0.669,1.5 -1.5000005,1.5 -0.831,0 -1.5,-0.669 -1.5,-1.5 0,-0.831 0.669,-1.5 1.5,-1.5 z M 16.394019,10 13.048316,13.34375 11.706518,12 11.700618,12.0078 11.692846,12 7.3998775,16.292969 8.1069087,17 l 3.5917973,-3.591797 0.642578,0.642578 0.707032,0.707031 0.707031,-0.707031 2.644531,-2.644531 2.292969,2.292969 0.707031,-0.707031 L 16.40769,10 l -0.0078,0.0078 z"
       id="rect4082" /><g
       transform="matrix(0.8832819,0,0,0.8832819,-2.5151335,-5.6109803)"
       id="g4152"
       style="display:inline"><path
         style="fill:#373737;fill-opacity:1"
         id="path6"
         d="m 8.2182764,21.942684 c -1.5996654,0.346691 -2.2049908,1.785615 -2.1601298,2.8786 0.048385,1.178769 -1.2184969,2.112828 -2.0141339,2.274428 1.0818283,0.85898 2.6647807,0.987332 4.0950332,0.696834 2.0932821,-0.425166 3.5186791,-2.057574 3.1375151,-3.934211 -0.286303,-1.4096 -1.4902528,-2.255486 -3.0582846,-1.915651 z" /><path
         id="path4174-1"
         d="m 9.7934142,21.203002 c 0.8752128,0.145118 1.8358908,0.962243 2.0196798,1.716751 0.103948,0.353764 0.980521,-0.381855 0.847489,-0.88809 -0.472907,-1.0433 -1.48891,-1.755279 -2.403118,-1.723616 -0.3304696,0.0053 -0.7312525,0.877894 -0.4640508,0.894955 z"
         style="display:inline;fill:#373737;fill-opacity:1;fill-rule:evenodd;stroke:none;stroke-width:1px;stroke-linecap:butt;stroke-linejoin:miter;stroke-opacity:1" /><path
         id="path4174-3-9"
         d="m 11.003601,19.636266 c 0.875213,0.145118 1.958525,1.036823 2.142314,1.791332 0.103948,0.353764 3.236146,-2.94242 3.103114,-3.448655 0.405475,-3.081808 -0.158091,-2.002503 -2.966608,-2.154521 -0.893959,0.05506 -2.546022,3.794783 -2.27882,3.811844 z"
         style="display:inline;fill:#373737;fill-opacity:1;fill-rule:evenodd;stroke:none;stroke-width:1px;stroke-linecap:butt;stroke-linejoin:miter;stroke-opacity:1" /></g></g><g
     id="g80"
     style="display:none"><g
       id="g79"
       style="display:none"><path
         id="path13"
         style="display:inline;fill:#373737;fill-opacity:1;stroke:none"
         d="m 5.0449219,2.96875 c -0.00527,0.1159832 -0.010784,0.2312095 -0.015625,0.3476562 -9.6e-4,0.1552659 -0.0011,0.311592 -0.00586,0.4667969 -0.00211,0.061865 -0.00448,0.123613 -0.00781,0.1855469 H 8.11133 C 8.11289,3.951971 8.11293,3.935326 8.11524,3.917969 8.128666,3.8171236 8.125939,3.7148006 8.126959,3.6132814 8.129329,3.4002312 8.133669,3.1876157 8.138678,2.9746096 c 4.92e-5,-0.00195 -4.98e-5,-0.00391 0,-0.00586 z m 5.4218751,0 c 5.45e-4,0.099994 -3.49e-4,0.2008163 0,0.3007812 0.0027,0.2332228 -0.0014,0.4660741 0.0039,0.6992188 h 3.243667 c 3.9e-5,-0.095712 1.01e-4,-0.1914301 0,-0.2871094 -2.39e-4,-0.2377707 -7.24e-4,-0.4751676 0,-0.7128906 z m 5.470703,0 v 0.3046875 c 0.0033,0.231862 0.0082,0.4635483 0.01367,0.6953125 h 2.042969 v 0.011719 c 0.0931,-0.00215 0.186075,-0.00246 0.279297,-0.00391 0.240021,-0.00328 0.480491,-0.00492 0.720703,-0.00586 V 2.96875 Z M 3.9941406,4.8242188 C 3.9167817,4.8311987 3.8391558,4.83844 3.7617188,4.84375 3.524214,4.85808 3.286687,4.8645106 3.0488281,4.8691406 c -0.018272,3.328e-4 -0.03645,-2.675e-4 -0.054687,0 V 7 h 0.2285156 0.7714844 z m 3.5,0.1445312 c -1.384951,0 -2.5,1.115049 -2.5,2.5 0,1.384951 1.115049,2.5 2.5,2.5 1.3849515,0 2.5,-1.115049 2.5,-2.5 0,-1.384951 -1.1150485,-2.5 -2.5,-2.5 z m 0,1 c 0.8309725,0 1.5,0.669028 1.5,1.5 0,0.830972 -0.6690275,1.5 -1.5,1.5 -0.8309685,0 -1.5,-0.669028 -1.5,-1.5 0,-0.830972 0.6690315,-1.5 1.5,-1.5 z M 17.994141,6.9570312 v 3.0058594 c 0.108474,0.00375 0.217504,0.00674 0.326171,0.00977 0.224879,0.00581 0.448939,0.011851 0.673829,0.015625 V 6.9667969 c -0.07132,0.00149 -0.143481,0.00195 -0.214844,0 -0.215825,-0.00118 -0.432651,-0.00143 -0.648438,-0.00586 -0.04552,-0.00105 -0.09126,-0.0028 -0.136718,-0.00391 z m -4.00586,3.0117188 -3.345703,3.34375 -1.3417968,-1.34375 -0.00586,0.0078 -0.00781,-0.0078 -4.2929688,4.292969 0.7070313,0.707031 3.5917969,-3.591797 0.6425781,0.642578 0.7070313,0.707031 0.707031,-0.707031 2.644532,-2.644531 2.292968,2.292969 0.707032,-0.707031 -2.992188,-2.992188 -0.0078,0.00781 z m -9.9941404,0.109375 c -0.1239996,0.01511 -0.2500045,0.01347 -0.375,0.01367 -0.1217408,2e-4 -0.4216278,-0.0025 -0.5390625,-0.0039 l -0.085937,-0.002 v 2.935546 c 0.1458916,-0.0047 0.2915753,-0.0078 0.4375,-0.0078 0.1878496,-0.0027 0.3747159,-0.0071 0.5625,-0.0098 z M 17.994141,13.09375 v 4.875 H 3.9941406 V 16.125 H 3.7695312 3.2558594 2.9941406 v 2.84375 H 18.994141 v -5.875 h -0.05078 z" /></g><g
       id="g81"><path
         id="path80"
         style="display:inline;fill:#cacaca;fill-opacity:1;stroke:none"
         d="m 5.0449219,2.96875 c -0.00527,0.1159832 -0.010784,0.2312095 -0.015625,0.3476562 -9.6e-4,0.1552659 -0.0011,0.311592 -0.00586,0.4667969 -0.00211,0.061865 -0.00448,0.123613 -0.00781,0.1855469 H 8.11133 C 8.11289,3.951971 8.11293,3.935326 8.11524,3.917969 8.128666,3.8171236 8.125939,3.7148006 8.126959,3.6132814 8.129329,3.4002312 8.133669,3.1876157 8.138678,2.9746096 c 4.92e-5,-0.00195 -4.98e-5,-0.00391 0,-0.00586 z m 5.4218751,0 c 5.45e-4,0.099994 -3.49e-4,0.2008163 0,0.3007812 0.0027,0.2332228 -0.0014,0.4660741 0.0039,0.6992188 h 3.243667 c 3.9e-5,-0.095712 1.01e-4,-0.1914301 0,-0.2871094 -2.39e-4,-0.2377707 -7.24e-4,-0.4751676 0,-0.7128906 z m 5.470703,0 v 0.3046875 c 0.0033,0.231862 0.0082,0.4635483 0.01367,0.6953125 h 2.042969 v 0.011719 c 0.0931,-0.00215 0.186075,-0.00246 0.279297,-0.00391 0.240021,-0.00328 0.480491,-0.00492 0.720703,-0.00586 V 2.96875 Z M 3.9941406,4.8242188 C 3.9167817,4.8311987 3.8391558,4.83844 3.7617188,4.84375 3.524214,4.85808 3.286687,4.8645106 3.0488281,4.8691406 c -0.018272,3.328e-4 -0.03645,-2.675e-4 -0.054687,0 V 7 h 0.2285156 0.7714844 z m 3.5,0.1445312 c -1.384951,0 -2.5,1.115049 -2.5,2.5 0,1.384951 1.115049,2.5 2.5,2.5 1.3849515,0 2.5,-1.115049 2.5,-2.5 0,-1.384951 -1.1150485,-2.5 -2.5,-2.5 z m 0,1 c 0.8309725,0 1.5,0.669028 1.5,1.5 0,0.830972 -0.6690275,1.5 -1.5,1.5 -0.8309685,0 -1.5,-0.669028 -1.5,-1.5 0,-0.830972 0.6690315,-1.5 1.5,-1.5 z M 17.994141,6.9570312 v 3.0058594 c 0.108474,0.00375 0.217504,0.00674 0.326171,0.00977 0.224879,0.00581 0.448939,0.011851 0.673829,0.015625 V 6.9667969 c -0.07132,0.00149 -0.143481,0.00195 -0.214844,0 -0.215825,-0.00118 -0.432651,-0.00143 -0.648438,-0.00586 -0.04552,-0.00105 -0.09126,-0.0028 -0.136718,-0.00391 z m -4.00586,3.0117188 -3.345703,3.34375 -1.3417968,-1.34375 -0.00586,0.0078 -0.00781,-0.0078 -4.2929688,4.292969 0.7070313,0.707031 3.5917969,-3.591797 0.6425781,0.642578 0.7070313,0.707031 0.707031,-0.707031 2.644532,-2.644531 2.292968,2.292969 0.707032,-0.707031 -2.992188,-2.992188 -0.0078,0.00781 z m -9.9941404,0.109375 c -0.1239996,0.01511 -0.2500045,0.01347 -0.375,0.01367 -0.1217408,2e-4 -0.4216278,-0.0025 -0.5390625,-0.0039 l -0.085937,-0.002 v 2.935546 c 0.1458916,-0.0047 0.2915753,-0.0078 0.4375,-0.0078 0.1878496,-0.0027 0.3747159,-0.0071 0.5625,-0.0098 z M 17.994141,13.09375 v 4.875 H 3.9941406 V 16.125 H 3.7695312 3.2558594 2.9941406 v 2.84375 H 18.994141 v -5.875 h -0.05078 z" /></g></g><g
     id="g86"><g
       id="g101"
       style="display:none"><g
         transform="matrix(1.0176164,0,0,1.0176164,-3.0583839,-9.3633009)"
         id="g85"
         style="display:inline"><path
           style="fill:#373737;fill-opacity:1"
           id="path83"
           d="m 8.2182764,21.942684 c -1.5996654,0.346691 -2.2049908,1.785615 -2.1601298,2.8786 0.048385,1.178769 -1.2184969,2.112828 -2.0141339,2.274428 1.0818283,0.85898 2.6647807,0.987332 4.0950332,0.696834 2.0932821,-0.425166 3.5186791,-2.057574 3.1375151,-3.934211 -0.286303,-1.4096 -1.4902528,-2.255486 -3.0582846,-1.915651 z" /><path
           id="path84"
           d="m 9.7934142,21.203002 c 0.8752128,0.145118 1.8358908,0.962243 2.0196798,1.716751 0.103948,0.353764 0.980521,-0.381855 0.847489,-0.88809 -0.472907,-1.0433 -1.48891,-1.755279 -2.403118,-1.723616 -0.3304696,0.0053 -0.7312525,0.877894 -0.4640508,0.894955 z"
           style="display:inline;fill:#373737;fill-opacity:1;fill-rule:evenodd;stroke:none;stroke-width:1px;stroke-linecap:butt;stroke-linejoin:miter;stroke-opacity:1" /><path
           id="path85"
           d="m 11.003601,19.636266 c 0.875213,0.145118 1.958525,1.036823 2.142314,1.791332 0.103948,0.353764 3.236146,-2.94242 3.103114,-3.448655 0.405475,-3.081808 -0.158091,-2.002503 -2.966608,-2.154521 -0.893959,0.05506 -2.546022,3.794783 -2.27882,3.811844 z"
           style="display:inline;fill:#373737;fill-opacity:1;fill-rule:evenodd;stroke:none;stroke-width:1px;stroke-linecap:butt;stroke-linejoin:miter;stroke-opacity:1" /></g><path
         id="path86"
         style="display:inline;fill:#373737;fill-opacity:1;stroke:none"
         d="m 5.4003906,3 v 8.429688 c 0.1434413,-0.171868 0.2893103,-0.341002 0.4414063,-0.50586 0.1886542,-0.227252 0.3757496,-0.455338 0.5585937,-0.6875 V 4 H 20.400391 V 18 H 8.3964844 C 8.0620898,18.337682 7.6873615,18.633166 7.3261719,18.941406 7.3014989,18.962466 7.2764321,18.98119 7.2519531,19 H 21.400391 V 3 Z m 4.5,2 c -1.3849804,0 -2.5,1.1150196 -2.5,2.5 0,0.3828263 0.086873,0.7434855 0.2402344,1.0664062 C 7.6945821,8.4922889 7.7486339,8.4177424 7.8027344,8.34375 7.9972363,8.0799829 8.1929125,7.8168554 8.4042969,7.5664062 8.4032925,7.5441406 8.4003906,7.5225282 8.4003906,7.5 c 0,-0.8309888 0.6690126,-1.5 1.5,-1.5 0.1820284,0 0.3549524,0.034806 0.5156254,0.09375 0.06749,-0.043786 0.135076,-0.086033 0.203125,-0.1289062 0.20929,-0.1319063 0.415868,-0.2692989 0.634765,-0.3847657 0.05102,-0.024315 0.102521,-0.047804 0.154297,-0.070312 C 10.989546,5.1917129 10.469332,5 9.9003906,5 Z m 6.4941404,5 -3.345703,3.34375 -0.25,-0.251953 c -0.177624,0.186549 -0.358821,0.369463 -0.537109,0.554687 -0.05337,0.05479 -0.105182,0.110944 -0.158203,0.166016 l 0.238281,0.238281 0.707031,0.707031 0.707031,-0.707031 2.644532,-2.644531 2.292968,2.292969 0.707032,-0.707031 L 16.408203,10 l -0.0078,0.0078 z m -9.9941404,3.732422 c -0.1121468,0.0977 -0.2247682,0.196056 -0.3359375,0.294922 -0.1390728,0.130174 -0.288912,0.253019 -0.390625,0.416015 -0.086247,0.138222 -0.1786985,0.249032 -0.2734375,0.335938 v 3.527344 C 5.5735018,18.115142 5.7453948,17.92122 5.9121094,17.724609 6.0828054,17.521271 6.2565109,17.317086 6.4003906,17.09375 Z" /></g><g
       id="g104"><g
         transform="matrix(1.0176164,0,0,1.0176164,-3.0583839,-9.3633009)"
         id="g103"
         style="display:inline"><path
           style="fill:#cacaca;fill-opacity:1"
           id="path101"
           d="m 8.2182764,21.942684 c -1.5996654,0.346691 -2.2049908,1.785615 -2.1601298,2.8786 0.048385,1.178769 -1.2184969,2.112828 -2.0141339,2.274428 1.0818283,0.85898 2.6647807,0.987332 4.0950332,0.696834 2.0932821,-0.425166 3.5186791,-2.057574 3.1375151,-3.934211 -0.286303,-1.4096 -1.4902528,-2.255486 -3.0582846,-1.915651 z" /><path
           id="path102"
           d="m 9.7934142,21.203002 c 0.8752128,0.145118 1.8358908,0.962243 2.0196798,1.716751 0.103948,0.353764 0.980521,-0.381855 0.847489,-0.88809 -0.472907,-1.0433 -1.48891,-1.755279 -2.403118,-1.723616 -0.3304696,0.0053 -0.7312525,0.877894 -0.4640508,0.894955 z"
           style="display:inline;fill:#cacaca;fill-opacity:1;fill-rule:evenodd;stroke:none;stroke-width:1px;stroke-linecap:butt;stroke-linejoin:miter;stroke-opacity:1" /><path
           id="path103"
           d="m 11.003601,19.636266 c 0.875213,0.145118 1.958525,1.036823 2.142314,1.791332 0.103948,0.353764 3.236146,-2.94242 3.103114,-3.448655 0.405475,-3.081808 -0.158091,-2.002503 -2.966608,-2.154521 -0.893959,0.05506 -2.546022,3.794783 -2.27882,3.811844 z"
           style="display:inline;fill:#cacaca;fill-opacity:1;fill-rule:evenodd;stroke:none;stroke-width:1px;stroke-linecap:butt;stroke-linejoin:miter;stroke-opacity:1" /></g><path
         id="path104"
         style="display:inline;fill:#cacaca;fill-opacity:1;stroke:none"
         d="m 5.4003906,3 v 8.429688 c 0.1434413,-0.171868 0.2893103,-0.341002 0.4414063,-0.50586 0.1886542,-0.227252 0.3757496,-0.455338 0.5585937,-0.6875 V 4 H 20.400391 V 18 H 8.3964844 C 8.0620898,18.337682 7.6873615,18.633166 7.3261719,18.941406 7.3014989,18.962466 7.2764321,18.98119 7.2519531,19 H 21.400391 V 3 Z m 4.5,2 c -1.3849804,0 -2.5,1.1150196 -2.5,2.5 0,0.3828263 0.086873,0.7434855 0.2402344,1.0664062 C 7.6945821,8.4922889 7.7486339,8.4177424 7.8027344,8.34375 7.9972363,8.0799829 8.1929125,7.8168554 8.4042969,7.5664062 8.4032925,7.5441406 8.4003906,7.5225282 8.4003906,7.5 c 0,-0.8309888 0.6690126,-1.5 1.5,-1.5 0.1820284,0 0.3549524,0.034806 0.5156254,0.09375 0.06749,-0.043786 0.135076,-0.086033 0.203125,-0.1289062 0.20929,-0.1319063 0.415868,-0.2692989 0.634765,-0.3847657 0.05102,-0.024315 0.102521,-0.047804 0.154297,-0.070312 C 10.989546,5.1917129 10.469332,5 9.9003906,5 Z m 6.4941404,5 -3.345703,3.34375 -0.25,-0.251953 c -0.177624,0.186549 -0.358821,0.369463 -0.537109,0.554687 -0.05337,0.05479 -0.105182,0.110944 -0.158203,0.166016 l 0.238281,0.238281 0.707031,0.707031 0.707031,-0.707031 2.644532,-2.644531 2.292968,2.292969 0.707032,-0.707031 L 16.408203,10 l -0.0078,0.0078 z" /></g></g><g
     id="layer1"
     transform="translate(-0.81424416,0.55711443)"
     style="display:none"><g
       id="g16"
       style="display:none"><path
         id="path1"
         style="display:inline;fill:#373737;fill-opacity:1;stroke:none"
         d="m 5.4003906,3 v 1.7363281 h 0.017578 0.9472656 0.035156 V 4 H 20.400391 V 18 H 6.4003906 V 17.419922 H 6.0761719 5.5898438 5.4003906 V 19 H 21.400391 V 3 Z m 4.5,2 C 8.94821,5 8.1235406,5.5272042 7.7011719,6.3066406 7.7479109,6.4343634 7.7952313,6.5617965 7.8417969,6.6894531 8.2166925,7.7351997 8.5929311,8.7794975 8.9746094,9.8222656 9.2610532,9.93607 9.5724567,10 9.9003906,10 11.285384,10 12.400391,8.8849902 12.400391,7.5 12.400391,6.1150098 11.285384,5 9.9003906,5 Z m 0,1 c 0.8309934,0 1.5000004,0.6690056 1.5000004,1.5 0,0.8309944 -0.669007,1.5 -1.5000004,1.5 -0.8309937,0 -1.5,-0.6690056 -1.5,-1.5 0,-0.8309944 0.6690063,-1.5 1.5,-1.5 z M 16.394531,10 13.048828,13.34375 11.707031,12 l -0.0059,0.0078 -0.0078,-0.0078 -1.36914,1.369141 c 0.125012,0.31361 0.251356,0.626974 0.378906,0.939453 0.0092,0.02276 0.01812,0.04563 0.02734,0.06836 l 0.96875,-0.96875 0.642578,0.642578 0.707031,0.707031 0.707031,-0.707031 2.644532,-2.644531 2.292968,2.292969 0.707032,-0.707031 L 16.408203,10 l -0.0078,0.0078 z"
         transform="translate(0.81424416,-0.55711443)" /><path
         id="text1"
         style="font-size:16px;display:inline;fill:#373737;fill-opacity:1"
         d="M 5.4236192,4.8667137 1.1892442,16.499526 h 1.5703125 l 1.140625,-3.242187 h 5.03125 l 1.1406253,3.242187 h 1.648437 l -0.216797,-0.59375 c -0.02829,-0.06816 -0.05573,-0.136791 -0.08789,-0.203125 C 11.185936,15.159832 10.944172,14.622796 10.7244,14.075698 10.24707,12.906019 9.7871116,11.728068 9.3454942,10.544448 8.8364869,9.1751103 8.3423456,7.8004976 7.8494004,6.4253074 7.6595041,5.9046869 7.4660013,5.3853684 7.2712754,4.8667137 Z M 6.4158067,6.2182762 8.4548692,11.929214 H 4.3689317 Z" /></g><g
       id="g17"
       style="display:inline"><path
         id="path16"
         style="display:inline;fill:#cacaca;fill-opacity:1;stroke:none"
         d="m 5.4003906,3 v 1.7363281 h 0.017578 0.9472656 0.035156 V 4 H 20.400391 V 18 H 6.4003906 V 17.419922 H 6.0761719 5.5898438 5.4003906 V 19 H 21.400391 V 3 Z m 4.5,2 C 8.94821,5 8.1235406,5.5272042 7.7011719,6.3066406 7.7479109,6.4343634 7.7952313,6.5617965 7.8417969,6.6894531 8.2166925,7.7351997 8.5929311,8.7794975 8.9746094,9.8222656 9.2610532,9.93607 9.5724567,10 9.9003906,10 11.285384,10 12.400391,8.8849902 12.400391,7.5 12.400391,6.1150098 11.285384,5 9.9003906,5 Z m 0,1 c 0.8309934,0 1.5000004,0.6690056 1.5000004,1.5 0,0.8309944 -0.669007,1.5 -1.5000004,1.5 -0.8309937,0 -1.5,-0.6690056 -1.5,-1.5 0,-0.8309944 0.6690063,-1.5 1.5,-1.5 z M 16.394531,10 13.048828,13.34375 11.707031,12 l -0.0059,0.0078 -0.0078,-0.0078 -1.36914,1.369141 c 0.125012,0.31361 0.251356,0.626974 0.378906,0.939453 0.0092,0.02276 0.01812,0.04563 0.02734,0.06836 l 0.96875,-0.96875 0.642578,0.642578 0.707031,0.707031 0.707031,-0.707031 2.644532,-2.644531 2.292968,2.292969 0.707032,-0.707031 L 16.408203,10 l -0.0078,0.0078 z"
         transform="translate(0.81424416,-0.55711443)" /><path
         id="path17"
         style="font-size:16px;display:inline;fill:#cacaca;fill-opacity:1"
         d="M 5.4236192,4.8667137 1.1892442,16.499526 h 1.5703125 l 1.140625,-3.242187 h 5.03125 l 1.1406253,3.242187 h 1.648437 l -0.216797,-0.59375 c -0.02829,-0.06816 -0.05573,-0.136791 -0.08789,-0.203125 C 11.185936,15.159832 10.944172,14.622796 10.7244,14.075698 10.24707,12.906019 9.7871116,11.728068 9.3454942,10.544448 8.8364869,9.1751103 8.3423456,7.8004976 7.8494004,6.4253074 7.6595041,5.9046869 7.4660013,5.3853684 7.2712754,4.8667137 Z M 6.4158067,6.2182762 8.4548692,11.929214 H 4.3689317 Z" /></g></g></svg>
