<?xml version="1.0" encoding="UTF-8" standalone="no"?>
<!-- Created with Inkscape (http://www.inkscape.org/) -->

<svg
   id="svg7384"
   height="22"
   width="22"
   version="1.1"
   inkscape:version="1.3.2 (091e20e, 2023-11-25, custom)"
   sodipodi:docname="custom_icons_inkscape.svg"
   inkscape:export-filename="dark_txt2img.svg"
   inkscape:export-xdpi="30"
   inkscape:export-ydpi="30"
   xmlns:inkscape="http://www.inkscape.org/namespaces/inkscape"
   xmlns:sodipodi="http://sodipodi.sourceforge.net/DTD/sodipodi-0.dtd"
   xmlns="http://www.w3.org/2000/svg"
   xmlns:svg="http://www.w3.org/2000/svg"
   xmlns:rdf="http://www.w3.org/1999/02/22-rdf-syntax-ns#"
   xmlns:cc="http://creativecommons.org/ns#"
   xmlns:dc="http://purl.org/dc/elements/1.1/">
  <defs
     id="defs9" />
  <sodipodi:namedview
     pagecolor="#ffffff"
     bordercolor="#666666"
     borderopacity="1"
     objecttolerance="10"
     gridtolerance="10"
     guidetolerance="10"
     inkscape:pageopacity="0"
     inkscape:pageshadow="2"
     inkscape:window-width="1920"
     inkscape:window-height="1017"
     id="namedview7"
     showgrid="true"
     inkscape:zoom="23.334524"
     inkscape:cx="-0.29998469"
     inkscape:cy="14.849242"
     inkscape:window-x="-8"
     inkscape:window-y="-8"
     inkscape:window-maximized="1"
     inkscape:current-layer="layer1"
     inkscape:showpageshadow="false"
     borderlayer="true"
     inkscape:pagecheckerboard="0"
     inkscape:deskcolor="#d1d1d1">
    <sodipodi:guide
       position="2,20"
       orientation="18,0"
       id="guide4064"
       inkscape:locked="false" />
    <sodipodi:guide
       position="2,2"
       orientation="0,18"
       id="guide4066"
       inkscape:locked="false" />
    <sodipodi:guide
       position="20,2"
       orientation="-18,0"
       id="guide4068"
       inkscape:locked="false" />
    <sodipodi:guide
       position="20,20"
       orientation="0,-18"
       id="guide4070"
       inkscape:locked="false" />
    <sodipodi:guide
       position="3,19"
       orientation="16,0"
       id="guide4072"
       inkscape:locked="false" />
    <sodipodi:guide
       position="3,3"
       orientation="0,16"
       id="guide4074"
       inkscape:locked="false" />
    <sodipodi:guide
       position="19,3"
       orientation="-16,0"
       id="guide4076"
       inkscape:locked="false" />
    <sodipodi:guide
       position="19,19"
       orientation="0,-16"
       id="guide4078"
       inkscape:locked="false" />
    <inkscape:grid
       type="xygrid"
       id="grid4080"
       originx="0"
       originy="0"
       spacingy="1"
       spacingx="1"
       units="px"
       visible="true" />
    <sodipodi:guide
       position="5,17"
       orientation="12,0"
       id="guide4089"
       inkscape:locked="false" />
    <sodipodi:guide
       position="5,5"
       orientation="0,12"
       id="guide4091"
       inkscape:locked="false" />
    <sodipodi:guide
       position="17,5"
       orientation="-12,0"
       id="guide4093"
       inkscape:locked="false" />
    <sodipodi:guide
       position="17,17"
       orientation="0,-12"
       id="guide4095"
       inkscape:locked="false" />
    <sodipodi:guide
       position="5,10"
       orientation="5,0"
       id="guide4127"
       inkscape:locked="false" />
    <sodipodi:guide
       position="5,5"
       orientation="0,5"
       id="guide4129"
       inkscape:locked="false" />
    <sodipodi:guide
       position="10,5"
       orientation="-5,0"
       id="guide4131"
       inkscape:locked="false" />
    <sodipodi:guide
       position="10,10"
       orientation="0,-5"
       id="guide4133"
       inkscape:locked="false" />
    <sodipodi:guide
       position="10,12"
       orientation="7,0"
       id="guide4135"
       inkscape:locked="false" />
    <sodipodi:guide
       position="10,5"
       orientation="0,7"
       id="guide4137"
       inkscape:locked="false" />
    <sodipodi:guide
       position="17,5"
       orientation="-7,0"
       id="guide4139"
       inkscape:locked="false" />
    <sodipodi:guide
       position="17,12"
       orientation="0,-7"
       id="guide4141"
       inkscape:locked="false" />
    <sodipodi:guide
       position="5,17"
       orientation="5,0"
       id="guide4147"
       inkscape:locked="false" />
    <sodipodi:guide
       position="5,12"
       orientation="0,5"
       id="guide4149"
       inkscape:locked="false" />
    <sodipodi:guide
       position="10,12"
       orientation="-5,0"
       id="guide4151"
       inkscape:locked="false" />
    <sodipodi:guide
       position="10,17"
       orientation="0,-5"
       id="guide4153"
       inkscape:locked="false" />
    <sodipodi:guide
       position="7.6999952,5.7071148"
       orientation="0.70710678,0.70710678"
       id="guide4175"
       inkscape:locked="false" />
    <sodipodi:guide
       position="8.407102,5.000008"
       orientation="-6.2932501,6.2932501"
       id="guide4177"
       inkscape:locked="false" />
    <sodipodi:guide
       position="13.993245,12.000365"
       orientation="6.2932501,-6.2932501"
       id="guide4181"
       inkscape:locked="false" />
    <sodipodi:guide
       position="9.3066406,10"
       orientation="0.707031,-0.7070312"
       id="guide4188"
       inkscape:locked="false" />
    <sodipodi:guide
       position="8.5996094,9.292969"
       orientation="2.050781,2.0488286"
       id="guide4190"
       inkscape:locked="false" />
    <sodipodi:guide
       position="11.355469,7.949219"
       orientation="-2.050781,-2.0488284"
       id="guide4194"
       inkscape:locked="false" />
    <sodipodi:guide
       position="20.300349,5.7071173"
       orientation="0.70710678,-0.70710678"
       id="guide4203"
       inkscape:locked="false" />
    <sodipodi:guide
       position="19.593242,5.0000105"
       orientation="-6.2932501,-6.2932501"
       id="guide4205"
       inkscape:locked="false" />
    <sodipodi:guide
       position="14.007099,12.000367"
       orientation="6.2932501,6.2932501"
       id="guide4209"
       inkscape:locked="false" />
  </sodipodi:namedview>
  <metadata
     id="metadata90">
    <rdf:RDF>
      <cc:Work
         rdf:about="">
        <dc:format>image/svg+xml</dc:format>
        <dc:type
           rdf:resource="http://purl.org/dc/dcmitype/StillImage" />
        <dc:title>Gnome Symbolic Icon Theme</dc:title>
      </cc:Work>
    </rdf:RDF>
  </metadata>
  <title
     id="title9167">Gnome Symbolic Icon Theme</title>
  <path
     style="display:none;fill:#373737;fill-opacity:1;stroke:none"
     d="M 5.3998775,3 V 19 H 21.399878 V 3 Z m 1,1 H 20.399878 V 18 H 6.3998775 Z m 3.5,1 c -1.385,0 -2.5,1.115 -2.5,2.5 0,1.385 1.115,2.5 2.5,2.5 1.3850005,0 2.5000005,-1.115 2.5000005,-2.5 0,-1.385 -1.115,-2.5 -2.5000005,-2.5 z m 0,1 c 0.8310005,0 1.5000005,0.669 1.5000005,1.5 0,0.831 -0.669,1.5 -1.5000005,1.5 -0.831,0 -1.5,-0.669 -1.5,-1.5 0,-0.831 0.669,-1.5 1.5,-1.5 z M 16.394019,10 13.048316,13.34375 11.706518,12 11.700618,12.0078 11.692846,12 7.3998775,16.292969 8.1069087,17 l 3.5917973,-3.591797 0.642578,0.642578 0.707032,0.707031 0.707031,-0.707031 2.644531,-2.644531 2.292969,2.292969 0.707031,-0.707031 L 16.40769,10 l -0.0078,0.0078 z"
     id="rect4082"
     inkscape:label="Original Image, shifted"
     sodipodi:insensitive="true" />
  <g
     id="layer1"
     inkscape:label="Txt2Img"
     transform="translate(-0.81424416,0.55711443)">
    <g
       id="g16"
       inkscape:label="Dark Color"
       style="display:none"
       sodipodi:insensitive="true">
      <path
         id="path1"
         style="display:inline;fill:#373737;fill-opacity:1;stroke:none"
         inkscape:label="Edited Picture"
         d="m 5.4003906,3 v 1.7363281 h 0.017578 0.9472656 0.035156 V 4 H 20.400391 V 18 H 6.4003906 V 17.419922 H 6.0761719 5.5898438 5.4003906 V 19 H 21.400391 V 3 Z m 4.5,2 C 8.94821,5 8.1235406,5.5272042 7.7011719,6.3066406 7.7479109,6.4343634 7.7952313,6.5617965 7.8417969,6.6894531 8.2166925,7.7351997 8.5929311,8.7794975 8.9746094,9.8222656 9.2610532,9.93607 9.5724567,10 9.9003906,10 11.285384,10 12.400391,8.8849902 12.400391,7.5 12.400391,6.1150098 11.285384,5 9.9003906,5 Z m 0,1 c 0.8309934,0 1.5000004,0.6690056 1.5000004,1.5 0,0.8309944 -0.669007,1.5 -1.5000004,1.5 -0.8309937,0 -1.5,-0.6690056 -1.5,-1.5 0,-0.8309944 0.6690063,-1.5 1.5,-1.5 z M 16.394531,10 13.048828,13.34375 11.707031,12 l -0.0059,0.0078 -0.0078,-0.0078 -1.36914,1.369141 c 0.125012,0.31361 0.251356,0.626974 0.378906,0.939453 0.0092,0.02276 0.01812,0.04563 0.02734,0.06836 l 0.96875,-0.96875 0.642578,0.642578 0.707031,0.707031 0.707031,-0.707031 2.644532,-2.644531 2.292968,2.292969 0.707032,-0.707031 L 16.408203,10 l -0.0078,0.0078 z"
         transform="translate(0.81424416,-0.55711443)"
         sodipodi:nodetypes="cccccccccccccccccscccsssssssscccccccccccccccccc" />
      <path
         id="text1"
         style="font-size:16px;display:inline;fill:#373737;fill-opacity:1"
         inkscape:label="A"
         d="M 5.4236192,4.8667137 1.1892442,16.499526 h 1.5703125 l 1.140625,-3.242187 h 5.03125 l 1.1406253,3.242187 h 1.648437 l -0.216797,-0.59375 c -0.02829,-0.06816 -0.05573,-0.136791 -0.08789,-0.203125 C 11.185936,15.159832 10.944172,14.622796 10.7244,14.075698 10.24707,12.906019 9.7871116,11.728068 9.3454942,10.544448 8.8364869,9.1751103 8.3423456,7.8004976 7.8494004,6.4253074 7.6595041,5.9046869 7.4660013,5.3853684 7.2712754,4.8667137 Z M 6.4158067,6.2182762 8.4548692,11.929214 H 4.3689317 Z" />
    </g>
    <g
       id="g17"
       inkscape:label="Light Color"
       style="display:inline">
      <path
         id="path16"
         style="display:inline;fill:#cacaca;fill-opacity:1;stroke:none"
         inkscape:label="Edited Picture"
         d="m 5.4003906,3 v 1.7363281 h 0.017578 0.9472656 0.035156 V 4 H 20.400391 V 18 H 6.4003906 V 17.419922 H 6.0761719 5.5898438 5.4003906 V 19 H 21.400391 V 3 Z m 4.5,2 C 8.94821,5 8.1235406,5.5272042 7.7011719,6.3066406 7.7479109,6.4343634 7.7952313,6.5617965 7.8417969,6.6894531 8.2166925,7.7351997 8.5929311,8.7794975 8.9746094,9.8222656 9.2610532,9.93607 9.5724567,10 9.9003906,10 11.285384,10 12.400391,8.8849902 12.400391,7.5 12.400391,6.1150098 11.285384,5 9.9003906,5 Z m 0,1 c 0.8309934,0 1.5000004,0.6690056 1.5000004,1.5 0,0.8309944 -0.669007,1.5 -1.5000004,1.5 -0.8309937,0 -1.5,-0.6690056 -1.5,-1.5 0,-0.8309944 0.6690063,-1.5 1.5,-1.5 z M 16.394531,10 13.048828,13.34375 11.707031,12 l -0.0059,0.0078 -0.0078,-0.0078 -1.36914,1.369141 c 0.125012,0.31361 0.251356,0.626974 0.378906,0.939453 0.0092,0.02276 0.01812,0.04563 0.02734,0.06836 l 0.96875,-0.96875 0.642578,0.642578 0.707031,0.707031 0.707031,-0.707031 2.644532,-2.644531 2.292968,2.292969 0.707032,-0.707031 L 16.408203,10 l -0.0078,0.0078 z"
         transform="translate(0.81424416,-0.55711443)"
         sodipodi:nodetypes="cccccccccccccccccscccsssssssscccccccccccccccccc" />
      <path
         id="path17"
         style="font-size:16px;display:inline;fill:#cacaca;fill-opacity:1"
         inkscape:label="A"
         d="M 5.4236192,4.8667137 1.1892442,16.499526 h 1.5703125 l 1.140625,-3.242187 h 5.03125 l 1.1406253,3.242187 h 1.648437 l -0.216797,-0.59375 c -0.02829,-0.06816 -0.05573,-0.136791 -0.08789,-0.203125 C 11.185936,15.159832 10.944172,14.622796 10.7244,14.075698 10.24707,12.906019 9.7871116,11.728068 9.3454942,10.544448 8.8364869,9.1751103 8.3423456,7.8004976 7.8494004,6.4253074 7.6595041,5.9046869 7.4660013,5.3853684 7.2712754,4.8667137 Z M 6.4158067,6.2182762 8.4548692,11.929214 H 4.3689317 Z" />
    </g>
  </g>
</svg>
