<?xml version="1.0" encoding="UTF-8" standalone="no"?>
<!-- Created with Inkscape (http://www.inkscape.org/) -->

<svg
   id="svg7384"
   height="22"
   width="22"
   version="1.1"
   xmlns="http://www.w3.org/2000/svg"
   xmlns:svg="http://www.w3.org/2000/svg"
   xmlns:rdf="http://www.w3.org/1999/02/22-rdf-syntax-ns#"
   xmlns:cc="http://creativecommons.org/ns#"
   xmlns:dc="http://purl.org/dc/elements/1.1/">
  <defs
     id="defs9" />
  <metadata
     id="metadata90">
    <rdf:RDF>
      <cc:Work
         rdf:about="">
        <dc:format>image/svg+xml</dc:format>
        <dc:type
           rdf:resource="http://purl.org/dc/dcmitype/StillImage" />
        <dc:title>Gnome Symbolic Icon Theme</dc:title>
      </cc:Work>
    </rdf:RDF>
  </metadata>
  <title
     id="title9167">Gnome Symbolic Icon Theme</title>
  <path
     style="display:none;fill:#373737;fill-opacity:1;stroke:none"
     d="M 5.3998775,3 V 19 H 21.399878 V 3 Z m 1,1 H 20.399878 V 18 H 6.3998775 Z m 3.5,1 c -1.385,0 -2.5,1.115 -2.5,2.5 0,1.385 1.115,2.5 2.5,2.5 1.3850005,0 2.5000005,-1.115 2.5000005,-2.5 0,-1.385 -1.115,-2.5 -2.5000005,-2.5 z m 0,1 c 0.8310005,0 1.5000005,0.669 1.5000005,1.5 0,0.831 -0.669,1.5 -1.5000005,1.5 -0.831,0 -1.5,-0.669 -1.5,-1.5 0,-0.831 0.669,-1.5 1.5,-1.5 z M 16.394019,10 13.048316,13.34375 11.706518,12 11.700618,12.0078 11.692846,12 7.3998775,16.292969 8.1069087,17 l 3.5917973,-3.591797 0.642578,0.642578 0.707032,0.707031 0.707031,-0.707031 2.644531,-2.644531 2.292969,2.292969 0.707031,-0.707031 L 16.40769,10 l -0.0078,0.0078 z"
     id="rect4082" />
  <g
     id="layer1"
     transform="translate(-0.81424416,0.55711443)"
     style="display:none">
    <g
       id="g16"
       style="display:none">
      <path
         id="path1"
         style="display:inline;fill:#373737;fill-opacity:1;stroke:none"
         d="m 5.4003906,3 v 1.7363281 h 0.017578 0.9472656 0.035156 V 4 H 20.400391 V 18 H 6.4003906 V 17.419922 H 6.0761719 5.5898438 5.4003906 V 19 H 21.400391 V 3 Z m 4.5,2 C 8.94821,5 8.1235406,5.5272042 7.7011719,6.3066406 7.7479109,6.4343634 7.7952313,6.5617965 7.8417969,6.6894531 8.2166925,7.7351997 8.5929311,8.7794975 8.9746094,9.8222656 9.2610532,9.93607 9.5724567,10 9.9003906,10 11.285384,10 12.400391,8.8849902 12.400391,7.5 12.400391,6.1150098 11.285384,5 9.9003906,5 Z m 0,1 c 0.8309934,0 1.5000004,0.6690056 1.5000004,1.5 0,0.8309944 -0.669007,1.5 -1.5000004,1.5 -0.8309937,0 -1.5,-0.6690056 -1.5,-1.5 0,-0.8309944 0.6690063,-1.5 1.5,-1.5 z M 16.394531,10 13.048828,13.34375 11.707031,12 l -0.0059,0.0078 -0.0078,-0.0078 -1.36914,1.369141 c 0.125012,0.31361 0.251356,0.626974 0.378906,0.939453 0.0092,0.02276 0.01812,0.04563 0.02734,0.06836 l 0.96875,-0.96875 0.642578,0.642578 0.707031,0.707031 0.707031,-0.707031 2.644532,-2.644531 2.292968,2.292969 0.707032,-0.707031 L 16.408203,10 l -0.0078,0.0078 z"
         transform="translate(0.81424416,-0.55711443)" />
      <path
         id="text1"
         style="font-size:16px;display:inline;fill:#373737;fill-opacity:1"
         d="M 5.4236192,4.8667137 1.1892442,16.499526 h 1.5703125 l 1.140625,-3.242187 h 5.03125 l 1.1406253,3.242187 h 1.648437 l -0.216797,-0.59375 c -0.02829,-0.06816 -0.05573,-0.136791 -0.08789,-0.203125 C 11.185936,15.159832 10.944172,14.622796 10.7244,14.075698 10.24707,12.906019 9.7871116,11.728068 9.3454942,10.544448 8.8364869,9.1751103 8.3423456,7.8004976 7.8494004,6.4253074 7.6595041,5.9046869 7.4660013,5.3853684 7.2712754,4.8667137 Z M 6.4158067,6.2182762 8.4548692,11.929214 H 4.3689317 Z" />
    </g>
    <g
       id="g17"
       style="display:inline">
      <path
         id="path16"
         style="display:inline;fill:#cacaca;fill-opacity:1;stroke:none"
         d="m 5.4003906,3 v 1.7363281 h 0.017578 0.9472656 0.035156 V 4 H 20.400391 V 18 H 6.4003906 V 17.419922 H 6.0761719 5.5898438 5.4003906 V 19 H 21.400391 V 3 Z m 4.5,2 C 8.94821,5 8.1235406,5.5272042 7.7011719,6.3066406 7.7479109,6.4343634 7.7952313,6.5617965 7.8417969,6.6894531 8.2166925,7.7351997 8.5929311,8.7794975 8.9746094,9.8222656 9.2610532,9.93607 9.5724567,10 9.9003906,10 11.285384,10 12.400391,8.8849902 12.400391,7.5 12.400391,6.1150098 11.285384,5 9.9003906,5 Z m 0,1 c 0.8309934,0 1.5000004,0.6690056 1.5000004,1.5 0,0.8309944 -0.669007,1.5 -1.5000004,1.5 -0.8309937,0 -1.5,-0.6690056 -1.5,-1.5 0,-0.8309944 0.6690063,-1.5 1.5,-1.5 z M 16.394531,10 13.048828,13.34375 11.707031,12 l -0.0059,0.0078 -0.0078,-0.0078 -1.36914,1.369141 c 0.125012,0.31361 0.251356,0.626974 0.378906,0.939453 0.0092,0.02276 0.01812,0.04563 0.02734,0.06836 l 0.96875,-0.96875 0.642578,0.642578 0.707031,0.707031 0.707031,-0.707031 2.644532,-2.644531 2.292968,2.292969 0.707032,-0.707031 L 16.408203,10 l -0.0078,0.0078 z"
         transform="translate(0.81424416,-0.55711443)" />
      <path
         id="path17"
         style="font-size:16px;display:inline;fill:#cacaca;fill-opacity:1"
         d="M 5.4236192,4.8667137 1.1892442,16.499526 h 1.5703125 l 1.140625,-3.242187 h 5.03125 l 1.1406253,3.242187 h 1.648437 l -0.216797,-0.59375 c -0.02829,-0.06816 -0.05573,-0.136791 -0.08789,-0.203125 C 11.185936,15.159832 10.944172,14.622796 10.7244,14.075698 10.24707,12.906019 9.7871116,11.728068 9.3454942,10.544448 8.8364869,9.1751103 8.3423456,7.8004976 7.8494004,6.4253074 7.6595041,5.9046869 7.4660013,5.3853684 7.2712754,4.8667137 Z M 6.4158067,6.2182762 8.4548692,11.929214 H 4.3689317 Z" />
    </g>
  </g>
  <g
     id="g13">
    <g
       id="g2"
       transform="matrix(0.71875001,0,0,0.72265626,0.2107432,5.8988)"
       style="display:none">
      <path
         id="path2"
         style="display:inline;fill:#373737;fill-opacity:1;stroke:none;stroke-width:1.11684"
         d="m 11.07364,-6.8518529 v 8.9702702 c 0.07529,-7.605e-4 0.15025,-0.002 0.225543,-0.0027 0.296694,0.0024 0.594445,0.00712 0.891305,0.010811 v -7.862165 H 27.826357 V 9.9022009 h -8.032609 c 1.68e-4,0.1162111 -4.2e-5,0.2323411 0,0.3486491 8.1e-5,0.255602 2.8e-5,0.511624 0,0.767567 h 9.149457 V -6.8518529 Z m 5.024456,2.2351351 c -1.546828,0 -2.790761,1.2450638 -2.790761,2.7918919 0,1.54682796 1.243933,2.79189183 2.790761,2.79189183 1.54683,0 2.793478,-1.24506387 2.793478,-2.79189183 0,-1.5468281 -1.246648,-2.7918919 -2.793478,-2.7918919 z m 0,1.1162162 c 0.928096,0 1.676631,0.7475788 1.676631,1.6756757 0,0.92809674 -0.748535,1.67567563 -1.676631,1.67567563 -0.928098,0 -1.673913,-0.74757889 -1.673913,-1.67567563 0,-0.9280969 0.745815,-1.6756757 1.673913,-1.6756757 z M 23.350813,0.96706593 19.76114,4.5562551 c 0.01062,0.5188705 0.01767,1.037767 0.02174,1.5567567 l 0.622282,-0.6216216 2.953805,-2.954054 2.559782,2.5594594 0.790761,-0.7891892 -3.342391,-3.34054047 -0.0082,0.008108 z" />
      <path
         style="display:inline;fill:#373737;fill-opacity:1;stroke:none;stroke-width:1.11957"
         d="M 1.0826427,3.1305171 V 21.043561 H 18.995686 V 3.1305171 Z M 2.2022079,4.2500824 H 17.876121 V 19.923996 H 2.2022079 Z m 3.9184786,1.1195652 c -1.5505982,0 -2.7989134,1.2483152 -2.7989134,2.798913 0,1.5505983 1.2483152,2.7989134 2.7989134,2.7989134 1.5505978,0 2.798913,-1.2483151 2.798913,-2.7989134 0,-1.5505978 -1.2483152,-2.798913 -2.798913,-2.798913 z m 0,1.1195652 c 0.9303587,0 1.6793478,0.7489891 1.6793478,1.6793478 0,0.9303591 -0.7489891,1.6793483 -1.6793478,1.6793483 -0.930359,0 -1.6793482,-0.7489892 -1.6793482,-1.6793483 0,-0.9303587 0.7489892,-1.6793478 1.6793482,-1.6793478 z m 7.2706145,4.4782612 -3.7457328,3.743546 -1.5022304,-1.504415 -0.00661,0.0087 -0.00873,-0.0087 -4.8062579,4.806258 0.7915675,0.791568 4.0212511,-4.021251 0.719408,0.719408 0.7915684,0.791567 0.7915671,-0.791567 2.960725,-2.960725 2.567128,2.567128 0.791568,-0.791567 -3.34995,-3.34995 -0.0087,0.0087 z"
         id="path3" />
    </g>
    <g
       id="g12"
       transform="matrix(0.71875001,0,0,0.72265626,0.2107432,5.8988)">
      <path
         id="path11"
         style="display:inline;fill:#cacaca;fill-opacity:1;stroke:none;stroke-width:1.11684"
         d="m 11.07364,-6.8518529 v 8.9702702 c 0.07529,-7.605e-4 0.15025,-0.002 0.225543,-0.0027 0.296694,0.0024 0.594445,0.00712 0.891305,0.010811 v -7.862165 H 27.826357 V 9.9022009 h -8.032609 c 1.68e-4,0.1162111 -4.2e-5,0.2323411 0,0.3486491 8.1e-5,0.255602 2.8e-5,0.511624 0,0.767567 h 9.149457 V -6.8518529 Z m 5.024456,2.2351351 c -1.546828,0 -2.790761,1.2450638 -2.790761,2.7918919 0,1.54682796 1.243933,2.79189183 2.790761,2.79189183 1.54683,0 2.793478,-1.24506387 2.793478,-2.79189183 0,-1.5468281 -1.246648,-2.7918919 -2.793478,-2.7918919 z m 0,1.1162162 c 0.928096,0 1.676631,0.7475788 1.676631,1.6756757 0,0.92809674 -0.748535,1.67567563 -1.676631,1.67567563 -0.928098,0 -1.673913,-0.74757889 -1.673913,-1.67567563 0,-0.9280969 0.745815,-1.6756757 1.673913,-1.6756757 z M 23.350813,0.96706593 19.76114,4.5562551 c 0.01062,0.5188705 0.01767,1.037767 0.02174,1.5567567 l 0.622282,-0.6216216 2.953805,-2.954054 2.559782,2.5594594 0.790761,-0.7891892 -3.342391,-3.34054047 -0.0082,0.008108 z" />
      <path
         style="display:inline;fill:#cacaca;fill-opacity:1;stroke:none;stroke-width:1.11957"
         d="M 1.0826427,3.1305171 V 21.043561 H 18.995686 V 3.1305171 Z M 2.2022079,4.2500824 H 17.876121 V 19.923996 H 2.2022079 Z m 3.9184786,1.1195652 c -1.5505982,0 -2.7989134,1.2483152 -2.7989134,2.798913 0,1.5505983 1.2483152,2.7989134 2.7989134,2.7989134 1.5505978,0 2.798913,-1.2483151 2.798913,-2.7989134 0,-1.5505978 -1.2483152,-2.798913 -2.798913,-2.798913 z m 0,1.1195652 c 0.9303587,0 1.6793478,0.7489891 1.6793478,1.6793478 0,0.9303591 -0.7489891,1.6793483 -1.6793478,1.6793483 -0.930359,0 -1.6793482,-0.7489892 -1.6793482,-1.6793483 0,-0.9303587 0.7489892,-1.6793478 1.6793482,-1.6793478 z m 7.2706145,4.4782612 -3.7457328,3.743546 -1.5022304,-1.504415 -0.00661,0.0087 -0.00873,-0.0087 -4.8062579,4.806258 0.7915675,0.791568 4.0212511,-4.021251 0.719408,0.719408 0.7915684,0.791567 0.7915671,-0.791567 2.960725,-2.960725 2.567128,2.567128 0.791568,-0.791567 -3.34995,-3.34995 -0.0087,0.0087 z"
         id="path12" />
    </g>
  </g>
</svg>
